<svg xmlns="http://www.w3.org/2000/svg" width="45" height="70" viewBox="0 0 45 70">
  <g fill="none" fill-rule="evenodd" transform="translate(-1.667)">
    <rect width="78.882" height="70.326" x="1.667" y=".62" fill="#FFF" opacity="0"/>
    <g fill="#000" fill-rule="nonzero" transform="translate(1.279 .343)">
      <path d="M13.2485533,18.2454762 C12.2046777,18.963671 10.8030911,19.1292163 9.53895835,19.1292163 C7.58783287,19.1292163 5.93894001,18.273483 5.93894001,15.7883625 C5.93894001,13.1105218 7.8351392,12.4200565 10.1434236,12.4200565 C11.2701026,12.4200565 12.3694565,12.6133313 13.2485533,12.8066062 L13.2485533,18.2454762 Z M9.37390345,0.079306456 C6.57100641,0.079306456 3.63065562,0.57649693 1.26716892,1.43195293 L1.26716892,5.73890354 C2.61410516,5.38008343 5.52657879,4.60698413 8.27482556,4.60698413 C10.9129437,4.60698413 13.2764304,5.24171307 13.2764304,7.78201532 L13.2764304,9.0520278 C12.259604,8.74811215 10.6380362,8.49965556 8.8792908,8.49965556 C4.3725746,8.49965556 0.140489867,10.1015905 0.140489867,16.1194531 C0.140489867,21.9726023 4.70213236,23.7120758 9.37390345,23.7120758 C12.8088669,23.7120758 16.3263578,22.6073313 18.8270222,20.6199559 L18.8270222,8.38929203 C18.8270222,1.73586858 14.2104534,0.079306456 9.37390345,0.079306456 L9.37390345,0.079306456 Z" transform="translate(25.75 34.5)"/>
      <polygon points="5.469 23.875 .495 23.875 .495 28.512 16.048 28.512 16.048 23.875 11.075 23.875 11.075 .076 .138 2.313 .138 6.674 5.469 5.791" transform="translate(27.099 .213)"/>
      <path d="M13.1969406,18.2454762 C12.152789,18.9633937 10.7512024,19.128939 9.48706964,19.128939 C7.53622017,19.128939 5.88732731,18.2732057 5.88732731,15.7883625 C5.88732731,13.1105218 7.78325048,12.4203338 10.0918109,12.4203338 C11.2184899,12.4203338 12.3175678,12.6136086 13.1969406,12.8068835 L13.1969406,18.2454762 Z M8.8276781,8.49993285 C4.3209619,8.49993285 0.0888771675,10.1013132 0.0888771675,16.1197304 C0.0888771675,21.9726023 4.65051966,23.7117985 9.32201474,23.7117985 C12.7575302,23.7117985 16.2747451,22.6076086 18.7754095,20.6199559 L18.7754095,8.38929203 C18.7754095,1.73586858 14.1588407,0.0795837513 9.32201474,0.0795837513 C6.51911769,0.0795837513 3.57876691,0.57649693 1.21555622,1.43223023 L1.21555622,5.73918084 C2.56249247,5.38008343 5.4752421,4.60726142 8.22321286,4.60726142 C10.861055,4.60726142 13.2248177,5.24199037 13.2248177,7.78229262 L13.2248177,9.0520278 C12.2077152,8.74811215 10.5861475,8.49993285 8.8276781,8.49993285 L8.8276781,8.49993285 Z" transform="translate(1.975 5.621)"/>
      <path d="M14.3009867,17.1684613 C13.2292339,18.2174694 11.6901936,18.7146598 10.5085883,18.7146598 C7.65104096,18.7146598 5.9469458,16.7816343 5.9469458,12.0884113 C5.9469458,8.03019462 7.23840373,4.96580425 11.6901936,4.96580425 C12.5146401,4.96580425 13.3940128,5.13162684 14.3009867,5.49044696 L14.3009867,17.1684613 Z M19.9070568,2.56387235 C17.3235889,1.01795105 14.9877033,0.106481395 11.5803411,0.106481395 C3.55613396,0.106481395 0.148771669,5.21426084 0.148771669,12.5856018 C0.231023103,19.9014837 4.02342147,23.7392507 9.2444555,23.7392507 C11.0581272,23.7392507 12.9267253,23.1868785 14.3009867,22.3308679 L14.3009867,35.0861744 L25.2379434,32.9052469 L25.2379434,28.5431145 L19.9070568,29.3713956 L19.9070568,2.56387235 Z" transform="translate(.24 34.472)"/>
    </g>
  </g>
</svg>
