<?xml version="1.0" encoding="utf-8"?><!-- Uploaded to: SVG Repo, www.svgrepo.com, Generator: SVG Repo Mixer Tools -->
<svg width="800px" height="800px" viewBox="0 0 400 400" fill="none" xmlns="http://www.w3.org/2000/svg">
<path d="M138.537 49.8665C172.959 49.17 227.435 43.1506 262.348 47.6652C299.831 52.5121 301.114 79.4384 302.448 90.1082C304.855 109.366 296.297 132.183 278.892 142.128C264.387 150.417 156.261 153.222 141.481 148.999C86.2989 133.233 82.8564 58.4925 128.722 50.8483" stroke="#000000" stroke-opacity="0.9" stroke-width="16" stroke-linecap="round" stroke-linejoin="round"/>
<path d="M206.969 177.688C212.884 165.473 224.194 155.428 237.97 153.309C299.928 143.776 320.814 201.088 288.534 233.368C251.302 270.601 202.154 236.018 202.154 190.028" stroke="#000000" stroke-opacity="0.9" stroke-width="16" stroke-linecap="round" stroke-linejoin="round"/>
<path d="M132.656 153.331C98.3507 162.932 84.6589 221.794 116.434 242.978C139.77 258.535 170.439 253.223 196.689 253.223" stroke="#000000" stroke-opacity="0.9" stroke-width="16" stroke-linecap="round" stroke-linejoin="round"/>
<path d="M139.057 253.65C113.61 261.284 99.4829 278.251 96.3685 303.169C90.1475 352.939 164.405 374.498 190.284 329.209C202.949 307.045 197.737 275.506 198.822 251.088C202.15 176.173 196.687 114.151 198.822 46.6096" stroke="#000000" stroke-opacity="0.9" stroke-width="16" stroke-linecap="round" stroke-linejoin="round"/>
</svg>